<?xml version="1.0" standalone="no"?>
<!DOCTYPE svg PUBLIC "-//W3C//DTD SVG 20010904//EN"
 "http://www.w3.org/TR/2001/REC-SVG-20010904/DTD/svg10.dtd">
<svg version="1.0" xmlns="http://www.w3.org/2000/svg"
 width="512.000000pt" height="512.000000pt" viewBox="0 0 512.000000 512.000000"
 preserveAspectRatio="xMidYMid meet">
<metadata>
Created by potrace 1.15, written by Peter Selinger 2001-2017
</metadata>
<g transform="translate(0.000000,512.000000) scale(0.100000,-0.100000)"
fill="#000000" stroke="none">
<path d="M203 4958 c-174 -172 -196 -198 -191 -231 3 -19 32 5 192 163 103
102 192 193 197 203 8 14 5 17 -17 17 -21 0 -60 -33 -181 -152z"/>
<path d="M303 4858 c-140 -139 -264 -265 -275 -281 -10 -15 -18 -37 -16 -50 3
-18 49 23 292 263 158 157 292 293 297 303 8 14 5 17 -17 17 -22 0 -75 -47
-281 -252z"/>
<path d="M402 4758 c-194 -194 -362 -365 -373 -381 -11 -15 -19 -37 -17 -50 4
-18 67 40 392 363 213 212 392 393 397 403 8 14 5 17 -18 17 -22 0 -89 -62
-381 -352z"/>
<path d="M502 4658 c-249 -249 -462 -465 -473 -481 -11 -15 -19 -37 -17 -50 4
-18 84 57 492 463 268 267 492 493 497 503 8 14 5 17 -18 17 -22 0 -104 -76
-481 -452z"/>
<path d="M602 4558 c-304 -304 -562 -565 -573 -581 -11 -15 -19 -37 -17 -50 4
-18 101 75 592 563 323 322 592 593 597 603 8 14 5 17 -18 17 -23 0 -118 -91
-581 -552z"/>
<path d="M702 4458 c-359 -359 -662 -665 -673 -681 -11 -15 -19 -37 -17 -50 4
-18 118 92 692 663 378 377 692 693 697 703 8 14 5 17 -18 17 -23 0 -133 -106
-681 -652z"/>
<path d="M802 4358 c-414 -414 -762 -765 -773 -781 -11 -15 -19 -37 -17 -50 4
-18 136 109 792 763 433 432 792 793 797 803 8 14 5 17 -18 17 -23 0 -148
-120 -781 -752z"/>
<path d="M902 4258 c-469 -469 -862 -865 -873 -881 -11 -15 -19 -37 -17 -50 4
-18 153 126 892 863 488 487 892 893 897 903 8 14 5 17 -18 17 -23 0 -162
-135 -881 -852z"/>
<path d="M1002 4158 c-524 -524 -962 -965 -973 -981 -11 -15 -19 -37 -17 -50
4 -18 170 144 992 963 543 542 992 993 997 1003 8 14 5 17 -18 17 -23 0 -177
-149 -981 -952z"/>
<path d="M1102 4058 c-579 -579 -1062 -1065 -1073 -1081 -11 -15 -19 -37 -17
-50 4 -18 188 161 1092 1063 598 597 1092 1093 1097 1103 8 14 5 17 -18 17
-23 0 -191 -164 -1081 -1052z"/>
<path d="M1202 3958 c-634 -634 -1162 -1165 -1173 -1181 -11 -15 -19 -37 -17
-50 4 -18 205 178 1192 1163 653 652 1192 1193 1197 1203 8 14 5 17 -18 17
-23 0 -206 -178 -1181 -1152z"/>
<path d="M1302 3858 c-689 -689 -1262 -1265 -1273 -1281 -11 -15 -19 -37 -17
-50 4 -18 222 195 1292 1263 708 707 1292 1293 1297 1303 8 14 5 17 -18 17
-23 0 -220 -193 -1281 -1252z"/>
<path d="M2200 4557 c-305 -304 -575 -566 -599 -581 -66 -42 -125 -100 -183
-180 -30 -41 -334 -354 -730 -751 -564 -567 -678 -685 -678 -708 0 -15 3 -27
7 -27 4 0 292 284 640 632 l633 632 -22 -66 c-18 -56 -27 -69 -50 -77 -85 -30
-174 -125 -248 -267 -39 -74 -73 -111 -501 -539 -379 -380 -459 -466 -459
-488 0 -15 3 -27 7 -27 4 0 198 190 431 423 l423 422 -27 -70 c-14 -38 -31
-83 -36 -100 -7 -19 -159 -179 -404 -426 -323 -324 -394 -400 -394 -422 0 -15
3 -27 7 -27 4 0 176 168 381 373 255 253 373 364 369 347 -3 -14 -9 -47 -12
-75 -7 -50 -7 -50 -376 -421 -302 -303 -369 -375 -369 -397 0 -15 3 -27 7 -27
4 0 170 162 369 361 l361 361 6 -59 6 -58 -374 -376 c-310 -310 -375 -380
-375 -402 0 -23 3 -26 18 -18 9 5 179 172 377 370 l360 361 12 -53 12 -52
-390 -391 c-319 -320 -389 -395 -389 -417 0 -15 3 -27 7 -27 4 0 184 176 399
391 l391 391 22 -37 c11 -20 21 -39 21 -43 0 -3 -189 -196 -420 -427 -346
-347 -420 -426 -420 -448 0 -15 3 -27 7 -27 4 0 134 126 289 281 167 167 284
277 288 270 16 -26 46 -10 80 43 43 68 105 113 181 130 23 6 -67 -90 -407
-431 -361 -362 -438 -444 -438 -466 0 -15 3 -27 7 -27 4 0 213 206 465 457
l457 456 36 -28 37 -28 -501 -501 c-418 -418 -501 -506 -501 -529 0 -23 3 -26
18 -18 9 5 244 237 521 514 l504 505 39 -26 39 -25 -560 -562 c-469 -469 -561
-565 -561 -588 0 -23 3 -26 18 -18 9 5 271 264 582 575 311 311 570 566 576
566 6 0 29 -7 49 -16 l38 -16 -631 -632 c-526 -525 -632 -636 -632 -659 0 -15
3 -27 7 -27 4 0 301 293 659 651 l651 651 44 -13 c24 -7 46 -14 49 -16 2 -2
-314 -322 -703 -711 -594 -594 -707 -712 -707 -735 0 -23 3 -26 18 -18 9 5
341 334 737 731 l720 720 45 -6 c25 -4 49 -9 54 -12 4 -2 -337 -349 -758 -771
-421 -421 -766 -770 -766 -774 0 -4 12 -7 27 -7 23 0 155 127 798 770 l770
770 45 0 c25 0 50 -4 57 -8 8 -5 -238 -258 -733 -752 -410 -410 -750 -753
-755 -763 -8 -14 -5 -17 18 -17 23 0 149 122 793 765 l765 765 65 0 65 0 -758
-758 c-416 -416 -757 -761 -757 -765 0 -4 12 -7 27 -7 23 0 154 126 793 765
l765 765 65 0 65 0 -758 -758 c-416 -416 -757 -761 -757 -765 0 -4 12 -7 27
-7 23 0 155 127 798 769 701 701 773 770 805 772 19 2 44 -2 55 -9 18 -10 -46
-77 -732 -764 -414 -414 -753 -757 -753 -761 0 -4 12 -7 27 -7 23 0 148 120
751 723 625 623 724 717 718 688 -3 -18 -6 -50 -6 -69 0 -35 -31 -67 -645
-682 -355 -355 -645 -649 -645 -653 0 -4 12 -7 27 -7 23 0 130 103 635 607
334 334 608 601 608 593 -1 -8 -7 -44 -14 -79 l-14 -64 -521 -521 c-287 -287
-521 -525 -521 -529 0 -4 12 -7 27 -7 22 0 115 87 533 504 278 277 515 507
527 511 13 3 26 16 29 29 3 12 87 104 187 203 153 152 188 182 219 187 l37 7
-6 -38 c-5 -34 -69 -101 -679 -713 -371 -372 -674 -679 -674 -683 0 -4 12 -7
27 -7 23 0 135 107 666 638 611 608 639 635 633 597 -3 -22 -6 -53 -6 -70 0
-26 -72 -102 -560 -590 -308 -308 -560 -564 -560 -568 0 -4 12 -7 27 -7 23 0
118 91 555 527 290 290 528 520 528 511 0 -21 37 -33 54 -19 8 7 17 35 20 64
7 52 10 56 139 185 l133 132 32 -33 32 -32 -651 -650 c-358 -358 -655 -658
-660 -667 -8 -15 -5 -18 18 -18 23 0 132 105 678 650 l651 650 32 -33 32 -33
-601 -599 c-330 -330 -605 -608 -610 -617 -8 -15 -5 -18 18 -18 23 0 125 98
628 599 l600 600 34 -31 34 -30 -562 -562 c-308 -309 -561 -565 -561 -569 0
-4 12 -7 27 -7 23 0 118 91 555 527 290 290 528 520 528 511 0 -18 34 -33 51
-22 14 9 59 109 59 132 0 10 13 31 29 46 l29 28 -5 -46 c-3 -26 -1 -51 5 -59
9 -10 -110 -134 -524 -547 -294 -294 -540 -543 -545 -552 -8 -15 -5 -18 18
-18 23 0 143 115 750 722 397 397 724 720 726 718 2 -3 9 -25 15 -50 l11 -45
-664 -665 c-366 -366 -665 -669 -665 -673 0 -4 12 -7 27 -7 23 0 135 108 670
642 415 415 644 637 647 627 3 -8 9 -30 14 -50 l10 -36 -575 -574 c-316 -316
-579 -582 -584 -591 -8 -15 -5 -18 18 -18 23 0 119 92 588 559 516 515 562
558 582 549 32 -15 55 6 51 49 -2 31 21 57 505 541 420 420 507 513 507 535 0
15 -3 27 -7 27 -4 0 -235 -228 -514 -506 -279 -278 -509 -502 -512 -498 -2 5
-8 29 -12 53 l-7 43 526 527 c436 436 526 531 526 554 0 15 -3 27 -7 27 -4 0
-245 -237 -534 -526 l-527 -527 -11 39 c-6 21 -11 46 -11 54 0 8 245 260 545
560 452 452 545 550 545 573 0 15 -3 27 -7 27 -4 0 -254 -246 -555 -547 l-548
-548 -2 45 c0 25 0 54 1 65 2 28 84 109 164 162 82 55 177 148 238 235 24 35
194 214 377 399 270 272 332 341 332 362 0 15 -3 27 -7 27 -4 0 -136 -129
-294 -286 l-287 -286 4 67 3 68 290 292 c238 238 291 296 291 319 0 22 -3 25
-17 17 -10 -5 -144 -136 -298 -290 -154 -155 -283 -281 -286 -281 -3 0 -14 18
-24 40 l-18 41 321 323 c263 263 322 327 322 349 0 15 -3 27 -7 27 -4 0 -154
-147 -334 -326 -287 -286 -328 -324 -334 -305 -4 14 -18 24 -37 28 -29 6 -20
15 341 377 304 305 371 377 371 399 0 15 -3 27 -7 27 -4 0 -193 -185 -419
-411 l-411 -411 -26 26 c-14 14 -32 26 -39 26 -7 0 193 206 445 458 377 378
457 463 457 485 0 15 -3 27 -7 27 -4 0 -224 -215 -488 -479 -351 -351 -488
-481 -510 -486 -16 -3 -39 -15 -50 -24 -11 -10 -33 -21 -49 -25 -16 -4 -42
-20 -58 -36 -25 -26 -29 -37 -27 -75 3 -39 -1 -49 -31 -80 l-33 -34 -29 24
c-16 14 -35 25 -41 25 -6 0 289 301 656 668 555 556 667 672 667 695 0 15 -3
27 -7 27 -4 0 -337 -329 -739 -732 l-732 -731 -31 24 c-16 13 -30 28 -30 34
-1 5 346 356 769 780 643 643 770 775 770 798 0 15 -3 27 -7 27 -4 0 -352
-344 -773 -765 l-766 -766 -13 52 -13 51 786 787 c656 657 786 791 786 814 0
15 -3 27 -7 27 -4 0 -364 -356 -799 -791 l-790 -790 -26 38 -26 38 824 825
c688 690 824 830 824 853 0 15 -3 27 -7 27 -4 0 -382 -374 -840 -832 -717
-717 -834 -830 -847 -819 -14 11 -8 18 44 52 73 47 245 214 259 252 6 16 11
47 11 70 l0 42 690 690 c579 580 690 695 690 718 0 23 -3 26 -17 18 -10 -5
-322 -314 -692 -685 l-675 -675 -24 41 -24 40 716 717 c601 602 716 721 716
744 0 23 -3 26 -17 18 -10 -5 -337 -330 -728 -720 -390 -391 -713 -711 -716
-711 -3 0 -14 18 -24 41 l-19 40 752 752 c628 628 752 757 752 780 0 15 -3 27
-7 27 -4 0 -350 -342 -768 -760 l-761 -760 -32 33 -32 32 736 735 c404 404
740 743 745 753 8 14 5 17 -18 17 -23 0 -146 -118 -768 -739 l-740 -740 -42
22 -43 22 701 700 c385 385 705 708 710 718 8 14 5 17 -18 17 -23 0 -141 -114
-739 -711 l-711 -711 -17 48 -16 48 655 656 c360 360 655 659 655 663 0 4 -12
7 -27 7 -23 0 -135 -108 -668 -640 l-640 -639 -23 41 -23 42 591 591 c324 325
590 594 590 598 0 4 -12 7 -27 7 -23 0 -126 -98 -608 -580 l-580 -579 -35 29
-35 29 543 543 c298 299 542 547 542 551 0 4 -12 7 -27 7 -23 0 -120 -92 -568
-539 l-540 -539 -48 17 -47 16 506 505 c278 278 510 513 515 523 8 14 5 17
-18 17 -23 0 -114 -86 -548 -519 l-520 -519 -68 -4 -68 -4 516 516 c283 283
515 519 515 523 0 4 -12 7 -27 7 -23 0 -119 -92 -563 -534 -509 -508 -538
-535 -590 -551 -30 -10 -75 -27 -100 -37 -38 -16 39 65 518 544 309 310 562
567 562 571 0 4 -12 7 -27 7 -23 0 -125 -97 -599 -571 l-572 -572 -37 28 -36
28 535 536 c295 295 536 540 536 544 0 4 -12 7 -27 7 -23 0 -118 -91 -558
-530 l-531 -530 -48 16 -48 17 506 506 c278 279 506 510 506 514 0 4 -12 7
-27 7 -22 0 -114 -87 -533 -505 l-505 -505 -65 0 -65 0 498 498 c273 273 497
501 497 505 0 4 -12 7 -27 7 -22 0 -114 -87 -533 -505 l-505 -505 -59 -11
c-32 -6 -70 -15 -85 -20 -14 -6 206 223 492 508 284 285 517 522 517 526 0 4
-12 7 -27 7 -23 0 -122 -95 -583 -553z m-130 -524 c0 -5 -176 -183 -390 -398
-289 -289 -390 -384 -390 -368 0 12 5 46 11 75 11 52 16 58 327 370 217 218
324 318 341 321 48 7 101 7 101 0z m129 -24 c17 -6 31 -14 31 -18 0 -3 -37
-43 -82 -88 -68 -67 -91 -84 -128 -92 -25 -6 -65 -17 -90 -26 -45 -15 -44 -14
80 110 69 69 132 125 141 125 9 0 30 -5 48 -11z m-594 -249 c-137 -137 -251
-248 -253 -246 -5 6 67 145 106 204 52 79 125 155 189 198 53 35 176 93 198
94 5 0 -102 -112 -240 -250z m1095 95 l-135 -135 -17 37 c-9 21 -17 43 -17 48
-1 6 32 44 73 84 63 63 82 75 127 86 115 28 115 26 -31 -120z m302 119 c6 -4
-49 -66 -122 -139 -118 -118 -137 -133 -174 -138 -22 -4 -57 -9 -76 -13 -33
-6 -24 5 120 151 l155 156 43 -5 c24 -3 48 -9 54 -12z m-664 -41 l22 -18 -52
-51 -53 -50 -59 4 -59 4 73 73 c78 78 77 78 128 38z m789 -39 c2 -5 -32 -44
-74 -86 l-78 -76 -70 -7 -70 -7 115 116 114 115 30 -23 c16 -12 31 -27 33 -32z
m-1146 -358 c-190 -191 -218 -215 -253 -220 -22 -4 -54 -14 -70 -22 -28 -15
-30 -19 -26 -59 l5 -43 -402 -402 c-309 -309 -404 -398 -409 -385 -3 9 -6 35
-6 58 l0 42 618 616 c339 339 624 619 632 622 8 3 40 6 70 6 l55 1 -214 -214z
m369 174 c3 0 -58 -63 -134 -139 -121 -121 -149 -144 -220 -179 -162 -80 -159
-71 58 147 l199 199 46 -14 c25 -7 48 -14 51 -14z m-950 -555 c-305 -305 -556
-551 -558 -545 -2 5 6 42 17 82 l21 73 407 407 c225 225 414 408 422 408 8 0
30 12 50 27 39 30 170 102 186 103 5 0 -240 -250 -545 -555z m1036 504 c19
-11 34 -24 34 -28 0 -3 -28 -34 -62 -68 -55 -52 -69 -61 -110 -67 -27 -3 -60
-8 -75 -12 -23 -5 -9 12 72 95 55 55 101 101 104 101 2 0 19 -9 37 -21z m550
-118 c-82 -82 -129 -122 -154 -129 -20 -6 -37 -10 -38 -9 -1 1 -4 17 -5 34 -3
30 5 42 91 128 l95 95 65 0 65 0 -119 -119z m278 92 c4 -3 -27 -40 -69 -83
-71 -72 -81 -78 -129 -84 -28 -4 -62 -10 -76 -13 -19 -4 -1 19 75 96 l100 102
45 -6 c25 -4 49 -9 54 -12z m121 -40 l35 -17 -47 -48 c-47 -48 -48 -48 -112
-48 l-65 0 64 65 c35 36 70 65 77 65 7 0 28 -8 48 -17z m-1080 -333 l-170
-170 -49 16 -48 17 153 153 154 154 65 0 65 0 -170 -170z m299 144 l38 -7
-168 -169 -169 -169 -50 7 c-27 3 -52 8 -55 10 -9 10 335 344 350 339 8 -2 32
-7 54 -11z m-479 -124 c-71 -71 -134 -130 -140 -130 -5 0 -25 9 -44 21 l-34
20 59 61 c32 33 77 72 99 86 41 27 148 71 175 71 8 1 -44 -57 -115 -129z m965
-35 c-91 -91 -172 -165 -180 -165 -8 1 -30 9 -47 18 l-33 17 143 142 c78 78
151 143 162 146 11 3 42 5 70 6 l50 1 -165 -165z m313 158 l39 -6 -168 -168
-169 -169 -57 0 c-32 0 -58 3 -58 7 0 4 75 83 167 175 107 107 175 168 188
168 11 0 37 -3 58 -7z m-473 -118 l-105 -106 -3 62 c-2 47 1 66 14 80 15 16
90 44 169 62 11 3 22 5 25 6 2 0 -43 -46 -100 -104z m-199 48 l11 -36 -114
-113 -113 -114 -70 -6 -70 -6 159 160 c92 92 165 158 172 155 7 -3 18 -21 25
-40z m824 30 l36 -17 -143 -143 -143 -143 -65 0 -65 0 160 160 c88 88 165 160
172 160 7 0 28 -8 48 -17z m100 -83 c8 -16 15 -35 15 -43 0 -7 -38 -50 -84
-95 l-84 -82 -63 0 -64 0 125 125 c69 69 128 125 132 125 4 0 14 -13 23 -30z
m-2440 -45 l0 -65 -143 -143 c-79 -78 -140 -133 -136 -122 4 11 27 63 51 115
38 83 55 107 136 188 50 50 92 92 92 92 0 0 0 -29 0 -65z m539 -81 l38 -7
-468 -468 c-257 -257 -470 -466 -473 -464 -2 3 -8 26 -12 52 l-7 48 426 427
c274 275 432 426 442 423 8 -2 32 -7 54 -11z m-383 -626 c-328 -329 -458 -454
-467 -447 -6 5 -18 23 -25 40 l-12 31 474 474 474 474 5 -57 5 -58 -454 -457z
m1476 494 c8 -5 -86 -106 -285 -305 l-298 -298 -58 7 -58 7 194 194 c200 202
248 242 309 262 54 17 123 66 150 106 26 38 28 39 46 27z m109 -30 c6 -4 16
-16 22 -28 10 -18 4 -27 -46 -76 -31 -31 -66 -58 -77 -60 -11 -2 -21 -12 -23
-23 -2 -11 -92 -109 -200 -218 -194 -194 -197 -197 -232 -191 -19 3 -43 8 -54
11 -15 4 42 66 275 299 162 162 301 294 309 294 8 0 20 -4 26 -8z m404 -76
c-51 -51 -76 -68 -117 -80 l-53 -15 0 27 c0 18 16 42 52 79 l52 53 66 0 65 0
-65 -64z m-1470 34 c0 -6 -7 -24 -15 -39 -8 -16 -17 -47 -21 -69 -6 -36 -43
-76 -425 -458 l-419 -419 -32 33 -33 32 465 465 c256 256 468 465 472 465 5 0
8 -5 8 -10z m392 -88 c14 -6 -21 -47 -180 -205 l-198 -198 -60 -9 c-32 -4 -68
-11 -79 -15 -27 -10 150 171 198 201 20 13 37 30 37 36 0 7 42 54 92 105 87
87 95 93 133 92 22 0 48 -4 57 -7z m1083 -102 c19 -21 17 -23 -185 -225 l-205
-205 -65 0 -65 0 130 130 c90 90 137 130 152 130 30 0 62 33 70 70 7 38 93
120 126 120 13 0 32 -9 42 -20z m-430 -16 l47 -7 -187 -187 c-118 -118 -193
-186 -204 -184 -9 1 -34 6 -55 9 l-39 7 184 184 c101 101 189 184 195 184 6 0
32 -3 59 -6z m-1067 -72 l15 -34 -370 -370 -370 -370 -43 22 -43 22 394 394
c217 217 396 388 398 382 2 -7 10 -28 19 -46z m460 41 c46 17 44 15 -98 -126
l-145 -144 -59 5 -59 4 139 139 c131 132 139 138 157 122 17 -16 21 -16 65 0z
m721 -84 c7 -13 -20 -45 -127 -152 l-137 -136 -58 6 -59 6 179 179 178 178 8
-32 c4 -18 11 -40 16 -49z m407 7 c5 -14 -26 -51 -137 -162 l-144 -144 -65 0
-65 0 185 185 185 185 17 -22 c10 -13 20 -31 24 -42z m43 -147 c1 -23 -6 -42
-17 -52 -22 -20 -91 -50 -162 -71 l-55 -16 110 110 c120 120 121 121 124 29z
m-1514 -149 c-36 -37 -43 -40 -96 -40 -62 0 -85 -15 -74 -50 4 -13 15 -20 33
-20 26 0 26 0 -13 -41 -38 -38 -43 -40 -88 -36 -26 2 -50 7 -54 11 -4 4 40 54
97 111 l105 105 64 0 65 0 -39 -40z m1585 0 c0 -20 -57 -72 -105 -94 -16 -8
-52 -17 -80 -21 l-50 -7 50 52 c58 60 153 114 173 98 6 -6 12 -19 12 -28z
m144 -45 c5 -16 -17 -43 -104 -130 -100 -99 -109 -106 -95 -71 9 22 15 51 12
65 -4 20 4 33 42 67 25 23 53 55 61 70 8 16 23 39 35 52 l20 24 11 -29 c6 -15
14 -37 18 -48z m594 28 l11 -48 -377 -378 -377 -377 -13 52 -13 52 318 318
c243 243 322 316 336 312 25 -8 47 13 47 44 0 23 34 72 50 72 4 0 12 -21 18
-47z m134 -50 c-30 -78 -98 -171 -201 -273 -77 -76 -114 -104 -186 -141 -49
-26 -101 -50 -115 -54 -16 -4 73 92 245 264 148 149 271 267 273 262 2 -5 -6
-31 -16 -58z m-2840 -54 l-4 -66 -152 -152 -152 -152 -47 12 c-26 6 -47 14
-47 18 0 6 403 412 405 408 0 -1 -1 -32 -3 -68z m2168 -74 c0 -24 -14 -33
-160 -97 -104 -46 -150 -105 -164 -208 -6 -43 -17 -56 -159 -198 l-153 -153
-28 30 -28 29 51 54 c28 29 178 182 333 340 l282 287 13 -30 c7 -17 13 -42 13
-54z m203 -5 c7 0 -89 -101 -212 -224 -124 -124 -228 -223 -233 -220 -4 3 -8
29 -8 58 l0 52 113 112 c63 62 119 112 125 112 18 0 82 61 82 78 0 9 14 31 32
49 l31 32 29 -24 c16 -14 35 -25 41 -25z m-2284 -52 l34 -10 -134 -133 -134
-134 -53 11 -54 11 139 139 c94 95 143 136 153 132 8 -3 30 -11 49 -16z m86
-158 c-147 -147 -149 -149 -225 -134 l-32 7 133 133 134 134 65 0 65 0 -140
-140z m278 123 l39 -6 -138 -138 c-134 -134 -140 -139 -181 -139 -86 0 -85 3
63 151 143 143 145 144 217 132z m190 -22 c27 -6 24 -10 -112 -145 l-139 -139
-57 8 -58 7 139 139 c147 148 148 148 227 130z m1097 -136 c-81 -81 -127 -120
-131 -112 -4 6 -10 30 -13 52 -6 38 -4 43 36 82 34 33 55 45 96 53 28 5 69 18
89 29 21 11 40 20 43 21 3 0 -51 -56 -120 -125z m-424 21 c-7 -52 -8 -54 -179
-222 l-172 -171 -48 16 -47 16 115 115 114 114 26 -24 c21 -20 28 -22 50 -12
32 15 64 83 65 137 0 32 7 46 38 78 43 44 48 37 38 -47z m-234 -17 l-4 -66
-128 -128 -128 -128 -36 22 c-20 13 -36 25 -36 28 0 3 40 46 89 95 82 83 90
89 110 76 33 -20 57 0 54 48 -3 33 3 44 39 81 23 23 42 42 43 40 0 -1 -1 -32
-3 -68z m448 -146 c0 -43 -4 -50 -48 -92 -46 -44 -159 -111 -212 -126 -17 -5
18 36 110 129 74 75 138 136 142 136 5 0 8 -21 8 -47z m-236 -18 c-4 -28 -2
-50 4 -58 9 -10 -7 -31 -66 -89 -42 -42 -87 -81 -99 -87 -13 -7 -23 -17 -23
-24 0 -7 -70 -82 -156 -167 -133 -133 -155 -151 -150 -125 3 17 8 50 11 75 6
43 19 57 243 283 130 130 238 237 240 237 2 0 0 -20 -4 -45z m455 -231 l-113
-114 -33 32 -33 32 137 138 138 139 9 -57 9 -56 -114 -114z m581 197 c0 -9
-74 -90 -164 -180 l-164 -164 -11 54 -12 53 126 126 125 125 50 2 c41 1 50 -2
50 -16z m13 -157 l5 -41 -169 -169 -169 -169 0 65 0 65 157 157 c100 100 160
153 164 145 3 -6 9 -31 12 -53z m-453 -35 l12 -51 -83 -84 -83 -84 -33 32 -33
32 102 103 c57 57 103 103 104 103 1 0 8 -23 14 -51z m-517 -181 c-59 -59
-108 -106 -110 -105 -1 2 2 34 8 72 10 68 13 72 77 137 l66 68 33 -32 33 -32
-107 -108z m556 -13 c1 -24 -9 -41 -43 -74 -46 -45 -51 -46 -94 -8 l-23 21 73
73 c73 74 73 74 79 46 4 -15 7 -42 8 -58z"/>
<path d="M4096 1050 c-559 -558 -1022 -1023 -1027 -1033 -8 -14 -5 -17 18 -17
23 0 181 153 1011 983 541 540 992 994 1003 1010 11 15 19 37 17 50 -4 18
-175 -149 -1022 -993z"/>
<path d="M4196 950 c-504 -503 -922 -923 -927 -932 -8 -15 -5 -18 18 -18 23 0
167 139 911 882 486 486 892 895 903 911 11 15 19 37 17 50 -4 18 -158 -132
-922 -893z"/>
<path d="M4296 850 c-449 -448 -822 -823 -827 -832 -8 -15 -5 -18 18 -18 23 0
152 124 811 783 431 430 792 794 803 810 11 15 19 37 17 50 -4 18 -141 -114
-822 -793z"/>
<path d="M4396 750 c-394 -393 -722 -723 -727 -732 -8 -15 -5 -18 18 -18 23 0
137 110 711 683 376 375 692 694 703 710 11 15 19 37 17 50 -4 18 -124 -97
-722 -693z"/>
<path d="M4496 650 c-339 -338 -622 -623 -627 -632 -8 -15 -5 -18 18 -18 23 0
123 95 611 583 321 320 592 594 603 610 11 15 19 37 17 50 -4 18 -106 -80
-622 -593z"/>
<path d="M4596 550 c-284 -283 -522 -523 -527 -533 -8 -14 -5 -17 18 -17 23 0
108 81 511 483 266 265 492 494 503 510 11 15 19 37 17 50 -4 18 -89 -62 -522
-493z"/>
<path d="M4696 450 c-229 -228 -422 -423 -427 -432 -8 -15 -5 -18 18 -18 22 0
93 66 411 383 211 210 392 394 403 410 11 15 19 37 17 50 -4 18 -72 -45 -422
-393z"/>
<path d="M4796 350 c-174 -173 -322 -323 -327 -332 -8 -15 -5 -18 17 -18 23 0
80 52 312 282 156 156 293 295 303 311 11 15 19 37 17 50 -4 18 -54 -28 -322
-293z"/>
<path d="M4896 250 c-119 -118 -222 -223 -227 -232 -8 -15 -5 -18 17 -18 21 0
65 37 211 183 205 202 226 227 221 260 -3 19 -37 -11 -222 -193z"/>
<path d="M4996 150 c-136 -133 -149 -150 -111 -150 18 0 49 23 111 82 102 98
127 130 122 161 -3 19 -19 7 -122 -93z"/>
</g>
</svg>
